<svg xmlns="http://www.w3.org/2000/svg" width="40" height="40" viewBox="0 0 40 40" fill="none">
  <rect width="40" height="40" rx="10" fill="url(#g)"/>
  <path d="M12 10h12.5c.83 0 1.5.67 1.5 1.5v17c0 .83-.67 1.5-1.5 1.5h-12c-.83 0-1.5-.67-1.5-1.5v-17.5c0-.83.67-1.5 1.5-1.5z" fill="white" fill-opacity=".18"/>
  <rect x="15" y="14" width="10" height="1.5" rx=".75" fill="white" fill-opacity=".9"/>
  <rect x="15" y="17.5" width="8" height="1.5" rx=".75" fill="white" fill-opacity=".6"/>
  <rect x="15" y="21" width="10" height="1.5" rx=".75" fill="white" fill-opacity=".9"/>
  <rect x="15" y="24.5" width="6" height="1.5" rx=".75" fill="white" fill-opacity=".6"/>
  <path d="M28 9l1.2 3.8L33 14l-3.8 1.2L28 19l-1.2-3.8L23 14l3.8-1.2L28 9z" fill="white"/>
  <path d="M30 7l.5 1.7L32 9.2l-1.7.5L30 11.4l-.5-1.7L27.8 9.2l1.7-.5L30 7z" fill="white" fill-opacity=".7"/>
  <rect x="8" y="8" width="6" height="6" rx="3" fill="white" fill-opacity=".1"/>
  <defs>
    <linearGradient id="g" x1="0" y1="0" x2="40" y2="40" gradientUnits="userSpaceOnUse">
      <stop stop-color="#4338ca"/>
      <stop offset=".5" stop-color="#6366f1"/>
      <stop offset="1" stop-color="#818cf8"/>
    </linearGradient>
  </defs>
</svg>
